<svg width="94" height="255" viewBox="0 0 94 255" fill="none" xmlns="http://www.w3.org/2000/svg">
<mask id="mask0_36_260" style="mask-type:luminance" maskUnits="userSpaceOnUse" x="26" y="0" width="37" height="37">
<path d="M26.0322 0H62.843V36.1637H26.0322V0Z" fill="white"/>
</mask>
<g mask="url(#mask0_36_260)">
<path d="M44.6757 35.9839C54.5973 35.9839 62.6451 27.9361 62.6451 18.0099C62.6451 8.0883 54.5973 0.0404434 44.6757 0.0404434C34.745 0.0404434 26.7017 8.0883 26.7017 18.0099C26.7017 27.9361 34.745 35.9839 44.6757 35.9839Z" fill="#100F0D"/>
</g>
<mask id="mask1_36_260" style="mask-type:luminance" maskUnits="userSpaceOnUse" x="2" y="39" width="85" height="179">
<path d="M2.47729 39.6147H87V217.917H2.47729V39.6147Z" fill="white"/>
</mask>
<g mask="url(#mask1_36_260)">
<path d="M25.4391 39.9517C12.7135 39.9517 2.47729 50.3317 2.47729 63.2774V118.467C2.47729 129.193 18.1776 129.193 18.1776 118.467V68.0046H21.8937V206.171C21.8937 220.514 42.8019 220.096 42.8019 206.171V125.971H46.4057V206.171C46.4057 220.096 67.4263 220.514 67.4263 206.171V68.0046H71.0571V118.467C71.0571 129.278 86.6765 129.273 86.6495 118.467V63.6144C86.6495 51.6752 77.3749 39.9831 63.4001 39.9831L25.4391 39.9562V39.9517Z" fill="#100F0D"/>
</g>
<path d="M13.216 253.917H8.384V240.701C8.384 240.338 8.384 239.89 8.384 239.357C8.40533 238.823 8.42667 238.269 8.448 237.693C8.46933 237.117 8.49067 236.605 8.512 236.157C8.40533 236.285 8.17067 236.519 7.808 236.861C7.46667 237.181 7.14667 237.469 6.848 237.725L4.224 239.837L1.888 236.925L9.248 231.069H13.216V253.917ZM36.481 250.429C37.0143 250.429 37.5263 250.375 38.017 250.269C38.5077 250.162 38.9983 250.034 39.489 249.885V253.437C38.977 253.65 38.337 253.831 37.569 253.981C36.8223 254.151 36.001 254.237 35.105 254.237C34.0597 254.237 33.121 254.066 32.289 253.725C31.4783 253.383 30.8277 252.797 30.337 251.965C29.8677 251.111 29.633 249.938 29.633 248.445V240.029H27.361V238.013L29.985 236.413L31.361 232.733H34.401V236.445H39.297V240.029H34.401V248.445C34.401 249.106 34.593 249.607 34.977 249.949C35.361 250.269 35.8623 250.429 36.481 250.429ZM58.868 245.149C58.868 246.599 58.6653 247.89 58.26 249.021C57.876 250.151 57.3107 251.111 56.564 251.901C55.8387 252.669 54.9533 253.255 53.908 253.661C52.8627 254.045 51.6787 254.237 50.356 254.237C49.14 254.237 48.0093 254.045 46.964 253.661C45.94 253.255 45.0547 252.669 44.308 251.901C43.5613 251.111 42.9747 250.151 42.548 249.021C42.1427 247.89 41.94 246.599 41.94 245.149C41.94 243.207 42.2813 241.575 42.964 240.253C43.6467 238.909 44.628 237.885 45.908 237.181C47.188 236.477 48.7027 236.125 50.452 236.125C52.0947 236.125 53.5453 236.477 54.804 237.181C56.0627 237.885 57.0547 238.909 57.78 240.253C58.5053 241.575 58.868 243.207 58.868 245.149ZM46.804 245.149C46.804 246.301 46.9213 247.271 47.156 248.061C47.412 248.829 47.8067 249.415 48.34 249.821C48.8733 250.205 49.5667 250.397 50.42 250.397C51.2733 250.397 51.956 250.205 52.468 249.821C53.0013 249.415 53.3853 248.829 53.62 248.061C53.876 247.271 54.004 246.301 54.004 245.149C54.004 243.997 53.876 243.037 53.62 242.269C53.3853 241.501 53.0013 240.925 52.468 240.541C51.9347 240.157 51.2413 239.965 50.388 239.965C49.1293 239.965 48.212 240.402 47.636 241.277C47.0813 242.13 46.804 243.421 46.804 245.149ZM85.873 253.917H69.905V250.557L75.633 244.765C76.785 243.57 77.713 242.578 78.417 241.789C79.121 240.978 79.633 240.253 79.953 239.613C80.273 238.951 80.433 238.247 80.433 237.501C80.433 236.583 80.177 235.901 79.665 235.453C79.1743 235.005 78.5023 234.781 77.649 234.781C76.7743 234.781 75.921 234.983 75.089 235.389C74.257 235.794 73.3823 236.37 72.465 237.117L69.841 234.013C70.5023 233.437 71.1957 232.903 71.921 232.413C72.6677 231.922 73.521 231.527 74.481 231.229C75.4623 230.909 76.6357 230.749 78.001 230.749C79.4943 230.749 80.7743 231.026 81.841 231.581C82.929 232.114 83.761 232.85 84.337 233.789C84.9343 234.706 85.233 235.751 85.233 236.925C85.233 237.885 85.0837 238.77 84.785 239.581C84.5077 240.391 84.0917 241.181 83.537 241.949C83.0037 242.695 82.3423 243.474 81.553 244.285C80.7637 245.074 79.8677 245.938 78.865 246.877L75.921 249.629V249.853H85.873V253.917Z" fill="black"/>
</svg>
