<svg width="90" height="254" viewBox="0 0 90 254" fill="none" xmlns="http://www.w3.org/2000/svg">
<mask id="mask0_36_255" style="mask-type:luminance" maskUnits="userSpaceOnUse" x="0" y="84" width="46" height="170">
<path d="M0 84H45.3333V253.333H0V84Z" fill="white"/>
</mask>
<g mask="url(#mask0_36_255)">
<mask id="mask1_36_255" style="mask-type:luminance" maskUnits="userSpaceOnUse" x="-102" y="-6" width="292" height="293">
<path d="M-101.333 140.599L44.3334 -5.06771L189.995 140.599L44.3334 286.26L-101.333 140.599Z" fill="white"/>
</mask>
<g mask="url(#mask1_36_255)">
<mask id="mask2_36_255" style="mask-type:luminance" maskUnits="userSpaceOnUse" x="-102" y="-6" width="292" height="293">
<path d="M-101.333 140.599L44.3334 -5.06771L189.995 140.599L44.3334 286.26L-101.333 140.599Z" fill="white"/>
</mask>
<g mask="url(#mask2_36_255)">
<mask id="mask3_36_255" style="mask-type:luminance" maskUnits="userSpaceOnUse" x="-102" y="-6" width="292" height="293">
<path d="M-101.333 140.599L44.3334 -5.06771L189.995 140.599L44.3334 286.26L-101.333 140.599Z" fill="white"/>
</mask>
<g mask="url(#mask3_36_255)">
<path fill-rule="evenodd" clip-rule="evenodd" d="M8.30748 240.292C9.48977 244.714 12.1148 247.682 15.7085 248.667C18.8804 249.531 22.3335 248.682 24.5158 246.5C25.7294 245.286 27.0523 243.13 26.4741 239.76C20.7241 207.984 24.7867 172.292 26.1669 162.109C29.2554 139.354 34.5523 118.37 39.4064 100.714C34.5106 97.0521 31.2346 95.5208 25.1408 92.6719L24.62 92.4271C21.9377 91.1771 19.5939 89.9635 18.4169 89.3437C17.87 89.5469 17.4429 89.8021 17.1564 90.0833C15.8387 91.4063 17.5939 94.3125 17.8648 94.7396C25.9794 104.562 14.4377 142.245 10.495 150.88C0.916857 171.844 7.91165 236.703 8.30748 240.292ZM27.5471 249.536C24.2971 252.781 19.2085 254.068 14.5783 252.802C9.47415 251.411 5.65644 247.187 4.11998 241.224C4.09394 241.125 4.07311 241.026 4.06269 240.927C3.74498 238.109 -3.69773 171.625 6.59394 149.099C11.8596 137.568 20.3283 104.177 14.521 97.4271C14.4741 97.375 14.4325 97.3229 14.396 97.2656C12.7866 94.9792 10.9221 90.2604 14.1252 87.0521C15.0887 86.0937 16.4221 85.3854 18.0991 84.9531C18.6252 84.8177 19.1825 84.8854 19.6616 85.1458C19.6929 85.1615 22.7814 86.8385 26.4377 88.5417L26.9585 88.7865C33.5887 91.8854 37.2398 93.5885 43.1773 98.1927C43.8596 98.724 44.1616 99.6198 43.9273 100.458C39.0106 118.26 33.5523 139.578 30.4169 162.688C29.0575 172.708 25.0575 207.839 30.7033 239.016C31.396 243.078 30.2762 246.807 27.5471 249.536Z" fill="#100F0D"/>
</g>
</g>
</g>
</g>
<mask id="mask4_36_255" style="mask-type:luminance" maskUnits="userSpaceOnUse" x="45" y="84" width="45" height="170">
<path d="M45.3335 84H89.3335V253.333H45.3335V84Z" fill="white"/>
</mask>
<g mask="url(#mask4_36_255)">
<mask id="mask5_36_255" style="mask-type:luminance" maskUnits="userSpaceOnUse" x="-102" y="-6" width="292" height="293">
<path d="M-101.333 140.599L44.3334 -5.06771L189.995 140.599L44.3334 286.26L-101.333 140.599Z" fill="white"/>
</mask>
<g mask="url(#mask5_36_255)">
<mask id="mask6_36_255" style="mask-type:luminance" maskUnits="userSpaceOnUse" x="-102" y="-6" width="292" height="293">
<path d="M-101.333 140.599L44.3334 -5.06771L189.995 140.599L44.3334 286.26L-101.333 140.599Z" fill="white"/>
</mask>
<g mask="url(#mask6_36_255)">
<mask id="mask7_36_255" style="mask-type:luminance" maskUnits="userSpaceOnUse" x="-102" y="-6" width="292" height="293">
<path d="M-101.333 140.599L44.3334 -5.06771L189.995 140.599L44.3334 286.26L-101.333 140.599Z" fill="white"/>
</mask>
<g mask="url(#mask7_36_255)">
<mask id="mask8_36_255" style="mask-type:luminance" maskUnits="userSpaceOnUse" x="-22" y="77" width="182" height="183">
<path d="M-21.7031 166.099L66.7917 77.6042L159.87 170.677L71.3698 259.177L-21.7031 166.099Z" fill="white"/>
</mask>
<g mask="url(#mask8_36_255)">
<path fill-rule="evenodd" clip-rule="evenodd" d="M63.3385 160.099C63.703 162.547 69.7708 204.115 63.3124 239.781C62.7083 243.292 64.1926 246.359 67.2916 247.964C70.3176 249.531 74.8801 249.599 78.2603 246.219C79.7447 244.734 80.828 242.745 81.4791 240.292C81.8697 236.766 88.6353 174.005 79.7499 151.948C79.5676 151.495 62.1145 106.51 71.9322 94.7292C72.4999 93.875 73.453 91.8646 73.0051 90.6563C72.802 90.1146 72.2551 89.6719 71.3749 89.3438C69.9791 90.0781 66.9374 91.6458 63.6458 93.125C57.677 95.8073 54.9478 97.2604 50.3801 100.714C52.5155 108.552 62.5312 145.891 63.3385 160.099ZM81.2968 249.25V249.255C77.0416 253.505 70.6197 254.516 65.3228 251.771C60.5468 249.302 58.1614 244.422 59.0833 239.036C65.5833 203.161 59.1458 161.073 59.0833 160.651C59.0676 160.578 59.0624 160.51 59.0572 160.438C58.2499 145.417 45.9843 100.906 45.8593 100.458C45.6301 99.6198 45.927 98.7292 46.6145 98.1927C52.2083 93.8594 55.1874 92.224 61.8853 89.2135C66.151 87.2969 70.0885 85.1615 70.1301 85.1406C70.6093 84.8854 71.1666 84.8177 71.6874 84.9531C75.151 85.8437 76.5051 87.7448 77.0364 89.1823C78.3853 92.8542 75.7083 96.8229 75.3958 97.2656C75.3541 97.3177 75.3124 97.375 75.2708 97.4271C69.1614 104.531 77.9166 135.906 83.7343 150.344C93.2343 173.938 86.0364 238.203 85.7291 240.927C85.7135 241.026 85.6978 241.125 85.6718 241.224C84.828 244.49 83.3541 247.193 81.2968 249.25Z" fill="#100F0D"/>
</g>
</g>
</g>
</g>
</g>
<mask id="mask9_36_255" style="mask-type:luminance" maskUnits="userSpaceOnUse" x="21" y="0" width="48" height="92">
<path d="M21.3335 0H68.0002V92H21.3335V0Z" fill="white"/>
</mask>
<g mask="url(#mask9_36_255)">
<mask id="mask10_36_255" style="mask-type:luminance" maskUnits="userSpaceOnUse" x="-102" y="-6" width="292" height="293">
<path d="M-101.333 140.599L44.3334 -5.06771L189.995 140.599L44.3334 286.26L-101.333 140.599Z" fill="white"/>
</mask>
<g mask="url(#mask10_36_255)">
<mask id="mask11_36_255" style="mask-type:luminance" maskUnits="userSpaceOnUse" x="-102" y="-6" width="292" height="293">
<path d="M-101.333 140.599L44.3334 -5.06771L189.995 140.599L44.3334 286.26L-101.333 140.599Z" fill="white"/>
</mask>
<g mask="url(#mask11_36_255)">
<mask id="mask12_36_255" style="mask-type:luminance" maskUnits="userSpaceOnUse" x="-102" y="-6" width="292" height="293">
<path d="M-101.333 140.599L44.3334 -5.06771L189.995 140.599L44.3334 286.26L-101.333 140.599Z" fill="white"/>
</mask>
<g mask="url(#mask12_36_255)">
<mask id="mask13_36_255" style="mask-type:luminance" maskUnits="userSpaceOnUse" x="-15" y="-6" width="119" height="120">
<path d="M-14.9895 54.2917L44.349 -5.04167L103.609 54.2187L44.2761 113.557L-14.9895 54.2917Z" fill="white"/>
</mask>
<g mask="url(#mask13_36_255)">
<path fill-rule="evenodd" clip-rule="evenodd" d="M66.297 91.2083C65.9584 91.5521 65.5001 91.7812 64.9845 91.8281C63.8022 91.9375 62.7553 91.0729 62.6459 89.8906L62.3022 86.224C62.297 86.1615 62.297 86.0937 62.297 86.026V77.776L59.6928 76.6146C58.922 76.2656 58.4272 75.5 58.4272 74.6562V64.9844C58.4272 64.1406 58.922 63.375 59.6876 63.0312L62.5834 61.724L61.8334 41.9792L47.7761 5.04166H46.4949V46.4427C46.4949 47.625 45.5313 48.5833 44.349 48.5833C43.1668 48.5833 42.2032 47.625 42.2032 46.4427V5.04166H40.922L26.8647 41.9792L26.1147 61.724L29.0105 63.0312C29.7761 63.375 30.2709 64.1406 30.2709 64.9844V74.6562C30.2709 75.5 29.7761 76.2708 29.0053 76.6146L26.4011 77.776V86.026C26.4063 86.0937 26.4011 86.1615 26.3959 86.2292L26.0522 89.8906C25.9428 91.0729 24.8959 91.9375 23.7136 91.8281C22.5365 91.7187 21.6667 90.6719 21.7813 89.4948L22.1147 85.9271V76.3854C22.1147 75.5417 22.6095 74.776 23.3803 74.4323L25.9845 73.2656V66.3698L23.0313 65.0417C22.2397 64.6823 21.7397 63.875 21.7709 63.0052L22.5886 41.4635C22.599 41.2292 22.6459 41 22.7292 40.7812L37.4428 2.13541C37.7553 1.30208 38.5522 0.755203 39.4428 0.755203H49.2553C50.1459 0.755203 50.9428 1.30208 51.2605 2.13541L65.9688 40.7812C66.0522 41 66.099 41.2292 66.1095 41.4635L66.9272 63.0052C66.9584 63.875 66.4636 64.6823 65.6667 65.0417L62.7136 66.3698V73.2656L65.3178 74.4271C66.0886 74.776 66.5886 75.5417 66.5886 76.3854V85.9271L66.922 89.4948C66.9792 90.151 66.7345 90.776 66.297 91.2083Z" fill="#100F0D"/>
</g>
</g>
</g>
</g>
</g>
<mask id="mask14_36_255" style="mask-type:luminance" maskUnits="userSpaceOnUse" x="32" y="44" width="26" height="26">
<path d="M32 44H57.3333V69.3333H32V44Z" fill="white"/>
</mask>
<g mask="url(#mask14_36_255)">
<mask id="mask15_36_255" style="mask-type:luminance" maskUnits="userSpaceOnUse" x="-102" y="-6" width="292" height="293">
<path d="M-101.333 140.599L44.3334 -5.06771L189.995 140.599L44.3334 286.26L-101.333 140.599Z" fill="white"/>
</mask>
<g mask="url(#mask15_36_255)">
<mask id="mask16_36_255" style="mask-type:luminance" maskUnits="userSpaceOnUse" x="-102" y="-6" width="292" height="293">
<path d="M-101.333 140.599L44.3334 -5.06771L189.995 140.599L44.3334 286.26L-101.333 140.599Z" fill="white"/>
</mask>
<g mask="url(#mask16_36_255)">
<mask id="mask17_36_255" style="mask-type:luminance" maskUnits="userSpaceOnUse" x="-102" y="-6" width="292" height="293">
<path d="M-101.333 140.599L44.3334 -5.06771L189.995 140.599L44.3334 286.26L-101.333 140.599Z" fill="white"/>
</mask>
<g mask="url(#mask17_36_255)">
<path fill-rule="evenodd" clip-rule="evenodd" d="M38.6772 50.9323C37.1615 52.4479 36.3282 54.4635 36.3282 56.6042C36.3282 58.7448 37.1615 60.7604 38.6772 62.276C40.1928 63.7865 42.2084 64.6198 44.349 64.6198C46.4897 64.625 48.5053 63.7865 50.0157 62.2708C51.5313 60.7552 52.3699 58.7448 52.3647 56.6042C52.3699 52.1823 48.7709 48.5833 44.349 48.5833C42.2084 48.5833 40.1928 49.4167 38.6772 50.9323ZM53.0522 65.3073C50.7292 67.6302 47.6407 68.9115 44.349 68.9115C41.0626 68.9115 37.9688 67.6302 35.6459 65.3073C33.323 62.9844 32.0417 59.8906 32.0417 56.6042C32.0417 53.3125 33.323 50.224 35.6459 47.901C37.9688 45.5729 41.0626 44.2917 44.349 44.2969C51.1355 44.2917 56.6563 49.8177 56.6615 56.6042C56.6563 59.8906 55.3803 62.9844 53.0522 65.3073Z" fill="#100F0D"/>
</g>
</g>
</g>
</g>
</svg>
