<svg width="47" height="255" viewBox="0 0 47 255" fill="none" xmlns="http://www.w3.org/2000/svg">
<mask id="mask0_36_256" style="mask-type:luminance" maskUnits="userSpaceOnUse" x="4" y="233" width="40" height="7">
<path d="M4 233.333H44V240H4V233.333Z" fill="white"/>
</mask>
<g mask="url(#mask0_36_256)">
<mask id="mask1_36_256" style="mask-type:luminance" maskUnits="userSpaceOnUse" x="-109" y="-3" width="266" height="266">
<path d="M-108.188 129.896L24.0417 -2.33334L156.271 129.896L24.0417 262.125L-108.188 129.896Z" fill="white"/>
</mask>
<g mask="url(#mask1_36_256)">
<mask id="mask2_36_256" style="mask-type:luminance" maskUnits="userSpaceOnUse" x="-109" y="-3" width="266" height="266">
<path d="M-108.188 129.896L24.0417 -2.33334L156.271 129.896L24.0417 262.125L-108.188 129.896Z" fill="white"/>
</mask>
<g mask="url(#mask2_36_256)">
<mask id="mask3_36_256" style="mask-type:luminance" maskUnits="userSpaceOnUse" x="-109" y="-3" width="266" height="266">
<path d="M-108.188 129.896L24.0417 -2.33334L156.271 129.896L24.0417 262.125L-108.188 129.896Z" fill="white"/>
</mask>
<g mask="url(#mask3_36_256)">
<path fill-rule="evenodd" clip-rule="evenodd" d="M43.0104 238.12C42.625 238.505 42.0521 238.766 41.4635 238.74H6.39583C5.20833 238.74 4.22917 237.76 4.20312 236.547C4.20312 235.365 5.18229 234.385 6.39583 234.354H41.4635C42.6458 234.354 43.6302 235.339 43.6563 236.547C43.6771 237.193 43.3958 237.734 43.0104 238.12Z" fill="black"/>
</g>
</g>
</g>
</g>
<mask id="mask4_36_256" style="mask-type:luminance" maskUnits="userSpaceOnUse" x="4" y="134" width="40" height="121">
<path d="M4 134.667H44V254.667H4V134.667Z" fill="white"/>
</mask>
<g mask="url(#mask4_36_256)">
<mask id="mask5_36_256" style="mask-type:luminance" maskUnits="userSpaceOnUse" x="-109" y="-3" width="266" height="266">
<path d="M-108.188 129.896L24.0417 -2.33333L156.271 129.896L24.0417 262.125L-108.188 129.896Z" fill="white"/>
</mask>
<g mask="url(#mask5_36_256)">
<mask id="mask6_36_256" style="mask-type:luminance" maskUnits="userSpaceOnUse" x="-109" y="-3" width="266" height="266">
<path d="M-108.188 129.896L24.0417 -2.33333L156.271 129.896L24.0417 262.125L-108.188 129.896Z" fill="white"/>
</mask>
<g mask="url(#mask6_36_256)">
<mask id="mask7_36_256" style="mask-type:luminance" maskUnits="userSpaceOnUse" x="-109" y="-3" width="266" height="266">
<path d="M-108.188 129.896L24.0417 -2.33333L156.271 129.896L24.0417 262.125L-108.188 129.896Z" fill="white"/>
</mask>
<g mask="url(#mask7_36_256)">
<path fill-rule="evenodd" clip-rule="evenodd" d="M38.0313 248C34.2656 251.76 29.2656 253.828 23.9531 253.823C18.6406 253.823 13.6354 251.76 9.875 248C6.10937 244.234 4.04688 239.229 4.04688 233.922V171.052C4.04688 168.526 4.94792 166.078 6.54688 164.068C9.92708 159.865 14.1563 151.094 4.53646 139.156C3.79167 138.198 3.92187 136.839 4.86979 136.089C5.82813 135.339 7.19271 135.469 7.94271 136.422C19.9063 151.276 13.3542 162.625 9.97396 166.823C8.99479 168.063 8.42708 169.557 8.43229 171.052V233.922C8.43229 238.047 10.026 241.964 12.9688 244.906C15.9115 247.844 19.8021 249.464 23.9531 249.443C28.0781 249.443 32 247.839 34.9375 244.901C37.875 241.964 39.5052 238.073 39.474 233.917L39.4792 171.052C39.474 169.557 38.9375 168.036 37.9271 166.823C34.5521 162.62 27.9531 151.276 39.9688 136.422C40.7135 135.469 42.1042 135.313 43.0313 136.089C43.9896 136.833 44.1406 138.229 43.3698 139.156C33.7552 151.094 37.9531 159.885 41.3594 164.068C42.9583 166.078 43.8854 168.552 43.8646 171.052L43.8594 233.917C43.8594 239.229 41.7969 244.229 38.0313 247.995V248Z" fill="black"/>
</g>
</g>
</g>
</g>
<mask id="mask8_36_256" style="mask-type:luminance" maskUnits="userSpaceOnUse" x="0" y="120" width="47" height="20">
<path d="M0 120H46.6667V140H0V120Z" fill="white"/>
</mask>
<g mask="url(#mask8_36_256)">
<mask id="mask9_36_256" style="mask-type:luminance" maskUnits="userSpaceOnUse" x="-109" y="-3" width="266" height="266">
<path d="M-108.188 129.896L24.0417 -2.33334L156.271 129.896L24.0417 262.125L-108.188 129.896Z" fill="white"/>
</mask>
<g mask="url(#mask9_36_256)">
<mask id="mask10_36_256" style="mask-type:luminance" maskUnits="userSpaceOnUse" x="-109" y="-3" width="266" height="266">
<path d="M-108.188 129.896L24.0417 -2.33334L156.271 129.896L24.0417 262.125L-108.188 129.896Z" fill="white"/>
</mask>
<g mask="url(#mask10_36_256)">
<mask id="mask11_36_256" style="mask-type:luminance" maskUnits="userSpaceOnUse" x="-109" y="-3" width="266" height="266">
<path d="M-108.188 129.896L24.0417 -2.33334L156.271 129.896L24.0417 262.125L-108.188 129.896Z" fill="white"/>
</mask>
<g mask="url(#mask11_36_256)">
<path fill-rule="evenodd" clip-rule="evenodd" d="M45.8697 139.182C45.3541 139.698 44.6874 139.958 43.9582 139.958H3.89574C3.17178 139.958 2.47387 139.672 1.98428 139.182C1.46866 138.667 1.21345 138 1.21345 137.271V123.089C1.20824 122.37 1.4947 121.672 1.97907 121.182C2.47387 120.693 3.17178 120.406 3.89053 120.411H43.9635C44.6874 120.406 45.3801 120.693 45.8697 121.182C46.3853 121.698 46.6457 122.37 46.6457 123.089V137.271C46.6978 137.995 46.3853 138.667 45.8697 139.182ZM5.59366 135.573H42.3176L42.3124 124.687H5.59366V135.573Z" fill="black"/>
</g>
</g>
</g>
</g>
<mask id="mask12_36_256" style="mask-type:luminance" maskUnits="userSpaceOnUse" x="4" y="176" width="18" height="64">
<path d="M4 176H21.3333V240H4V176Z" fill="white"/>
</mask>
<g mask="url(#mask12_36_256)">
<mask id="mask13_36_256" style="mask-type:luminance" maskUnits="userSpaceOnUse" x="-109" y="-3" width="266" height="266">
<path d="M-108.188 129.896L24.0417 -2.33334L156.271 129.896L24.0417 262.125L-108.188 129.896Z" fill="white"/>
</mask>
<g mask="url(#mask13_36_256)">
<mask id="mask14_36_256" style="mask-type:luminance" maskUnits="userSpaceOnUse" x="-109" y="-3" width="266" height="266">
<path d="M-108.188 129.896L24.0417 -2.33334L156.271 129.896L24.0417 262.125L-108.188 129.896Z" fill="white"/>
</mask>
<g mask="url(#mask14_36_256)">
<mask id="mask15_36_256" style="mask-type:luminance" maskUnits="userSpaceOnUse" x="-109" y="-3" width="266" height="266">
<path d="M-108.188 129.896L24.0417 -2.33334L156.271 129.896L24.0417 262.125L-108.188 129.896Z" fill="white"/>
</mask>
<g mask="url(#mask15_36_256)">
<path fill-rule="evenodd" clip-rule="evenodd" d="M20.1666 238.12C19.776 238.505 19.2083 238.766 18.6197 238.74C17.4322 238.74 16.4478 237.755 16.427 236.547L16.4218 191.323C16.427 188.589 15.3645 185.979 13.4322 184.047C11.4999 182.109 8.94263 181.057 6.21346 181.057C5.02596 181.057 4.04679 180.078 4.02075 178.865C4.02075 177.677 4.99992 176.703 6.21346 176.672C10.1301 176.677 13.7968 178.219 16.552 180.979C19.3124 183.74 20.7812 187.432 20.8072 191.323V236.547C20.8072 237.167 20.552 237.734 20.1666 238.12Z" fill="black"/>
</g>
</g>
</g>
</g>
<mask id="mask16_36_256" style="mask-type:luminance" maskUnits="userSpaceOnUse" x="26" y="176" width="18" height="64">
<path d="M26.6667 176H44.0001V240H26.6667V176Z" fill="white"/>
</mask>
<g mask="url(#mask16_36_256)">
<mask id="mask17_36_256" style="mask-type:luminance" maskUnits="userSpaceOnUse" x="-109" y="-3" width="266" height="266">
<path d="M-108.188 129.896L24.0417 -2.33334L156.271 129.896L24.0417 262.125L-108.188 129.896Z" fill="white"/>
</mask>
<g mask="url(#mask17_36_256)">
<mask id="mask18_36_256" style="mask-type:luminance" maskUnits="userSpaceOnUse" x="-109" y="-3" width="266" height="266">
<path d="M-108.188 129.896L24.0417 -2.33334L156.271 129.896L24.0417 262.125L-108.188 129.896Z" fill="white"/>
</mask>
<g mask="url(#mask18_36_256)">
<mask id="mask19_36_256" style="mask-type:luminance" maskUnits="userSpaceOnUse" x="-109" y="-3" width="266" height="266">
<path d="M-108.188 129.896L24.0417 -2.33334L156.271 129.896L24.0417 262.125L-108.188 129.896Z" fill="white"/>
</mask>
<g mask="url(#mask19_36_256)">
<path fill-rule="evenodd" clip-rule="evenodd" d="M30.8385 238.125C30.453 238.51 29.8801 238.766 29.2968 238.74C28.1041 238.74 27.1249 237.76 27.1041 236.547L27.0989 191.323C27.0989 187.396 28.5989 183.74 31.3593 180.979L31.4062 180.932C34.1405 178.198 37.776 176.672 41.6926 176.672C42.8801 176.677 43.8593 177.656 43.8853 178.865C43.8853 180.052 42.9062 181.031 41.6926 181.057C38.9583 181.057 36.3801 182.146 34.4739 184.052C32.5416 185.984 31.5103 188.562 31.4843 191.323V236.599C31.453 237.193 31.2239 237.734 30.8385 238.125Z" fill="black"/>
</g>
</g>
</g>
</g>
<mask id="mask20_36_256" style="mask-type:luminance" maskUnits="userSpaceOnUse" x="16" y="24" width="16" height="102">
<path d="M16 24H32V125.333H16V24Z" fill="white"/>
</mask>
<g mask="url(#mask20_36_256)">
<mask id="mask21_36_256" style="mask-type:luminance" maskUnits="userSpaceOnUse" x="-109" y="-3" width="266" height="266">
<path d="M-108.188 129.896L24.0417 -2.33334L156.271 129.896L24.0417 262.125L-108.188 129.896Z" fill="white"/>
</mask>
<g mask="url(#mask21_36_256)">
<mask id="mask22_36_256" style="mask-type:luminance" maskUnits="userSpaceOnUse" x="-109" y="-3" width="266" height="266">
<path d="M-108.188 129.896L24.0417 -2.33334L156.271 129.896L24.0417 262.125L-108.188 129.896Z" fill="white"/>
</mask>
<g mask="url(#mask22_36_256)">
<mask id="mask23_36_256" style="mask-type:luminance" maskUnits="userSpaceOnUse" x="-109" y="-3" width="266" height="266">
<path d="M-108.188 129.896L24.0417 -2.33334L156.271 129.896L24.0417 262.125L-108.188 129.896Z" fill="white"/>
</mask>
<g mask="url(#mask23_36_256)">
<path fill-rule="evenodd" clip-rule="evenodd" d="M30.8438 124.099C30.4531 124.484 29.8802 124.745 29.2917 124.714C28.1042 124.714 27.125 123.734 27.099 122.521V29.2344L20.8073 29.2292V122.526C20.8073 123.714 19.8281 124.688 18.6198 124.719C17.4271 124.714 16.4479 123.734 16.4271 122.526L16.4219 27.0677C16.4271 26.5 16.6563 25.9063 17.0417 25.5208C17.4583 25.1042 17.9948 24.8698 18.5885 24.901H29.2656C30.4531 24.901 31.4323 25.8802 31.4583 27.0938L31.4531 122.552C31.4844 123.141 31.224 123.708 30.8385 124.094L30.8438 124.099Z" fill="black"/>
</g>
</g>
</g>
</g>
<mask id="mask24_36_256" style="mask-type:luminance" maskUnits="userSpaceOnUse" x="13" y="0" width="22" height="30">
<path d="M13.3333 0H34.6666V29.3333H13.3333V0Z" fill="white"/>
</mask>
<g mask="url(#mask24_36_256)">
<mask id="mask25_36_256" style="mask-type:luminance" maskUnits="userSpaceOnUse" x="-109" y="-3" width="266" height="266">
<path d="M-108.188 129.896L24.0417 -2.33334L156.271 129.896L24.0417 262.125L-108.188 129.896Z" fill="white"/>
</mask>
<g mask="url(#mask25_36_256)">
<mask id="mask26_36_256" style="mask-type:luminance" maskUnits="userSpaceOnUse" x="-109" y="-3" width="266" height="266">
<path d="M-108.188 129.896L24.0417 -2.33334L156.271 129.896L24.0417 262.125L-108.188 129.896Z" fill="white"/>
</mask>
<g mask="url(#mask26_36_256)">
<mask id="mask27_36_256" style="mask-type:luminance" maskUnits="userSpaceOnUse" x="-109" y="-3" width="266" height="266">
<path d="M-108.188 129.896L24.0417 -2.33334L156.271 129.896L24.0417 262.125L-108.188 129.896Z" fill="white"/>
</mask>
<g mask="url(#mask27_36_256)">
<path fill-rule="evenodd" clip-rule="evenodd" d="M29.6302 28.6146C28.9844 29.2604 27.9792 29.4375 27.125 29.0521C26.0417 28.5312 25.6042 27.224 26.1198 26.1354L29.1615 19.849L24.3646 5.30208H23.5938L18.7969 19.8437L21.8386 26.1354C22.3542 27.2187 21.9167 28.5312 20.8334 29.0521C19.75 29.5625 18.4375 29.1302 17.9167 28.0469L14.4896 20.9531C14.2344 20.4375 14.2084 19.849 14.3854 19.3021L19.9792 2.41146C20.2657 1.51562 21.1198 0.916664 22.0469 0.916664H26.0209C26.9479 0.916664 27.7969 1.51041 28.0782 2.41146L33.6719 19.3073C33.8542 19.8437 33.8334 20.4375 33.5729 20.9531L30.1407 28.0469C29.9375 28.25 29.8125 28.4323 29.6302 28.6146Z" fill="black"/>
</g>
</g>
</g>
</g>
</svg>
